Title: 
Quelques Heures de Printemps Aka A Few Hours of Spring

Country:
France/2012

Language:
French

No Subtitle

Director:
Stéphane Brizé

Writers:
Stéphane Brizé, Florence Vignon

Stars:
Vincent Lindon, Hélène Vincent, Emmanuelle Seigner 	

Synopsis:
Alain Evrard, a trucker who has just finished serving a prison sentence, is forced to temporarily move back to his mother's house. This forced co-habitation causes all the violence of their past relationship to re-emerge. One day, Alain accidentally discovers Yvette, his mother, by a brain tumor and that she has decided to shorten her suffering by resorting to assisted suicide in Switzerland... 

Imdb: 
http://www.imdb.com/title/tt1899270/?ref_=fn_al_tt_2

Trailer: 
http://www.bandes-annonces.fr/film-2012/bande-annonce-quelquesheuresdeprintemps.html


Media Info:

General
Complete name                            : Quelques.Heures.de.Printemps.2012.BRRip.XviD.AC3.HORiZON-ArtSubs
Format                                   : AVI
Format/Info                              : Audio Video Interleave
File size                                : 1.46 GiB
Duration                                 : 1h 48mn
Overall bit rate                         : 1 928 Kbps
Writing application                      : FairUse Wizard - http://fairusewizard.com
Writing library                          : The best and REALLY easy backup tool

Video
ID                                       : 0
Format                                   : MPEG-4 Visual
Format profile                           : Advanced Simple@L5
Format settings, BVOP                    : 1
Format settings, QPel                    : No
Format settings, GMC                     : No warppoints
Format settings, Matrix                  : Default (MPEG)
Muxing mode                              : Packed bitstream
Codec ID                                 : XVID
Codec ID/Hint                            : XviD
Duration                                 : 1h 48mn
Bit rate                                 : 1 471 Kbps
Width                                    : 704 pixels
Height                                   : 376 pixels
Display aspect ratio                     : 1.85:1
Frame rate                               : 23.976 fps
Color space                              : YUV
Chroma subsampling                       : 4:2:0
Bit depth                                : 8 bits
Scan type                                : Progressive
Compression mode                         : Lossy
Bits/(Pixel*Frame)                       : 0.232
Stream size                              : 1.11 GiB (76%)
Writing library                          : XviD 1.2.1 (UTC 2008-12-04)

Audio
ID                                       : 1
Format                                   : AC-3
Format/Info                              : Audio Coding 3
Mode extension                           : CM (complete main)
Format settings, Endianness              : Big
Codec ID                                 : 2000
Duration                                 : 1h 48mn
Bit rate mode                            : Constant
Bit rate                                 : 448 Kbps
Channel(s)                               : 6 channels
Channel positions                        : Front: L C R, Side: L R, LFE
Sampling rate                            : 48.0 KHz
Bit depth                                : 16 bits
Compression mode                         : Lossy
Stream size                              : 348 MiB (23%)
Alignment                                : Split accross interleaves
Interleave, duration                     : 42 ms (1.00 video frame)
Interleave, preload duration             : 500 ms

